<?xml version="1.0" standalone="no"?>
<!DOCTYPE svg PUBLIC "-//W3C//DTD SVG 20010904//EN"
 "http://www.w3.org/TR/2001/REC-SVG-20010904/DTD/svg10.dtd">
<svg version="1.0" xmlns="http://www.w3.org/2000/svg"
 width="401.000000pt" height="275.000000pt" viewBox="0 0 401.000000 275.000000"
 preserveAspectRatio="xMidYMid meet">

<g transform="translate(0.000000,275.000000) scale(0.100000,-0.100000)"
fill="#000000" stroke="none">
<path d="M3563 2654 c-51 -12 -74 -25 -117 -65 -69 -63 -91 -99 -106 -171 -8
-43 -8 -71 1 -115 21 -106 23 -102 -66 -153 -44 -26 -170 -99 -281 -163 -110
-64 -206 -117 -212 -117 -6 0 -36 30 -65 68 -106 132 -210 218 -342 284 -103
52 -157 68 -285 84 -118 15 -249 8 -360 -18 -61 -14 -222 -90 -281 -133 -27
-19 -53 -35 -58 -35 -4 0 -4 23 1 51 9 51 4 79 -8 43 -33 -103 -134 -184 -230
-184 -51 0 -137 42 -168 84 -78 102 -42 232 79 291 112 55 224 15 296 -104 37
-61 39 -63 39 -33 0 46 -17 83 -58 125 -80 83 -182 107 -273 65 -30 -14 -68
-37 -86 -52 -94 -80 -102 -247 -15 -332 76 -75 186 -103 267 -70 19 8 35 13
35 10 0 -4 -26 -41 -58 -83 -75 -99 -169 -306 -189 -416 -20 -105 -20 -308 0
-413 9 -45 28 -115 43 -154 l28 -70 -21 -17 c-11 -9 -34 -23 -49 -32 -16 -9
-98 -58 -183 -108 -84 -50 -157 -91 -161 -91 -5 0 -19 13 -32 29 -63 78 -183
114 -289 86 -72 -18 -101 -37 -163 -106 -53 -59 -70 -108 -69 -199 0 -90 31
-157 100 -220 62 -57 109 -74 203 -74 154 1 287 116 278 242 -3 44 -4 45 -11
17 -21 -82 -73 -150 -145 -191 -39 -21 -60 -26 -122 -27 -86 -1 -134 17 -186
70 -56 56 -77 108 -77 188 1 86 11 112 65 171 71 77 153 104 256 84 80 -15
135 -60 177 -143 19 -38 35 -78 35 -89 0 -11 3 -17 8 -14 7 4 7 64 0 124 -3
20 22 38 197 141 110 66 203 117 207 115 4 -3 21 -31 38 -63 39 -73 109 -151
220 -249 301 -263 742 -296 1085 -80 72 46 190 151 248 220 71 85 145 212 167
288 26 92 50 271 49 365 -1 148 -41 351 -88 447 -25 52 -26 59 -12 71 16 14
98 64 161 100 19 10 119 69 222 129 l188 110 49 -45 c59 -52 118 -72 211 -71
151 3 286 120 278 242 -3 44 -4 45 -11 17 -29 -110 -122 -200 -229 -219 -85
-15 -225 35 -249 88 -5 12 -20 35 -33 53 -29 39 -39 106 -26 174 11 56 15 64
69 122 44 47 76 65 144 78 84 16 166 -4 223 -54 46 -41 104 -141 104 -181 0
-34 13 -8 15 31 4 54 -24 109 -86 173 -76 78 -170 102 -286 74z m-1610 -411
c-7 -2 -21 -2 -30 0 -10 3 -4 5 12 5 17 0 24 -2 18 -5z m230 -10 c-23 -2 -64
-2 -90 0 -26 2 -7 3 42 3 50 0 71 -1 48 -3z m-563 -63 c0 -5 -9 -10 -20 -10
-11 0 -20 5 -20 10 0 6 9 10 20 10 11 0 20 -4 20 -10z m318 3 c-10 -2 -26 -2
-35 0 -10 3 -2 5 17 5 19 0 27 -2 18 -5z m-555 -260 c-24 -2 -62 -2 -85 0 -24
2 -5 4 42 4 47 0 66 -2 43 -4z m965 -30 c-15 -2 -42 -2 -60 0 -18 2 -6 4 27 4
33 0 48 -2 33 -4z m-13 -33 c15 -6 7 -9 -30 -9 -27 -1 -75 -3 -105 -6 l-55 -5
45 14 c51 16 116 19 145 6z m-757 -128 c3 -9 -20 -12 -79 -12 -96 0 -98 17 -4
22 75 5 78 4 83 -10z m-343 -2 c-3 -5 -25 -9 -48 -8 l-42 1 45 7 c25 4 46 8
48 8 2 1 0 -2 -3 -8z m1568 -4 c4 -11 -2 -12 -36 -4 -56 12 -59 18 -10 18 25
0 43 -5 46 -14z m-593 -140 c0 -8 6 -17 13 -20 6 -3 -46 -4 -118 -2 -71 2
-141 9 -155 15 -20 9 -9 10 60 6 47 -2 101 -1 120 4 54 14 80 13 80 -3z m-460
-143 c-19 -3 -38 -9 -41 -15 -9 -14 -149 -24 -149 -11 0 13 93 30 165 30 34 0
45 -2 25 -4z m185 -3 c17 -7 15 -9 -10 -8 -16 0 -43 4 -60 8 -29 7 -28 8 10 8
22 0 49 -3 60 -8z m408 3 c-7 -2 -21 -2 -30 0 -10 3 -4 5 12 5 17 0 24 -2 18
-5z m170 0 c-7 -2 -21 -2 -30 0 -10 3 -4 5 12 5 17 0 24 -2 18 -5z m-1253 -13
c0 -13 -60 -13 -80 0 -11 7 -2 10 33 10 26 0 47 -4 47 -10z m-54 -29 c-7 -11
-110 -23 -130 -15 -36 14 -11 24 60 24 41 0 73 -4 70 -9z m730 -40 c61 -27
123 -118 152 -223 23 -83 -65 -238 -162 -287 -60 -30 -168 -33 -234 -6 -43 17
-112 86 -138 138 -25 47 -34 121 -23 185 8 46 21 72 55 115 47 61 82 83 147
97 56 12 153 3 203 -19z m939 19 c3 -5 -3 -10 -15 -10 -12 0 -18 5 -15 10 3 6
10 10 15 10 5 0 12 -4 15 -10z m-640 -70 c3 -5 48 -11 98 -12 l92 -1 -80 -8
c-82 -7 -122 -16 -140 -30 -12 -9 -95 0 -95 11 0 4 -12 13 -27 20 -26 12 -27
13 -8 21 29 11 153 11 160 -1z m378 -177 c-7 -2 -19 -2 -25 0 -7 3 -2 5 12 5
14 0 19 -2 13 -5z m262 -13 c4 -6 -6 -10 -22 -10 -22 0 -25 2 -13 10 19 12 27
12 35 0z m-1200 -331 c11 -16 -1 -22 -30 -15 -14 4 -23 11 -20 16 8 13 42 13
50 -1z m625 -40 c11 -7 -3 -8 -45 -3 -33 3 -62 8 -64 10 -10 9 96 3 109 -7z
m147 -5 c-3 -3 -12 -4 -19 -1 -8 3 -5 6 6 6 11 1 17 -2 13 -5z m-1034 -11
c-18 -2 -48 -2 -65 0 -18 2 -4 4 32 4 36 0 50 -2 33 -4z m1147 -3 c0 -5 -9
-10 -21 -10 -11 0 -17 5 -14 10 3 6 13 10 21 10 8 0 14 -4 14 -10z m-120 -25
c-11 -13 -5 -15 46 -15 48 0 61 -4 72 -20 7 -12 8 -20 2 -20 -5 0 -10 4 -10 9
0 4 -24 11 -54 15 -93 11 -149 46 -73 46 25 0 28 -2 17 -15z m-760 -135 c0 -5
-9 -10 -21 -10 -11 0 -17 5 -14 10 3 6 13 10 21 10 8 0 14 -4 14 -10z m670
-80 c0 -5 -15 -10 -32 -10 -25 0 -29 3 -18 10 20 13 50 13 50 0z"/>
<path d="M1848 1233 c7 -3 16 -2 19 1 4 3 -2 6 -13 5 -11 0 -14 -3 -6 -6z"/>
<path d="M1788 1153 c6 -2 18 -2 25 0 6 3 1 5 -13 5 -14 0 -19 -2 -12 -5z"/>
<path d="M3163 876 c-156 -39 -253 -185 -222 -335 14 -70 39 -112 92 -155 56
-45 77 -55 142 -67 111 -20 239 31 305 123 24 32 30 51 30 90 0 30 -4 47 -10
43 -5 -3 -10 -16 -10 -29 0 -37 -57 -112 -111 -147 -93 -60 -210 -59 -300 2
-57 40 -89 86 -101 147 -33 177 132 322 321 281 87 -18 161 -92 199 -194 10
-29 10 -28 11 21 2 145 -179 261 -346 220z"/>
</g>
</svg>
